<?xml version="1.0" standalone="no"?>
<!DOCTYPE svg PUBLIC "-//W3C//DTD SVG 20010904//EN"
 "http://www.w3.org/TR/2001/REC-SVG-20010904/DTD/svg10.dtd">
<svg version="1.0" xmlns="http://www.w3.org/2000/svg"
 width="526.000000pt" height="547.000000pt" viewBox="0 0 526.000000 547.000000"
 preserveAspectRatio="xMidYMid meet">

<g transform="translate(0.000000,547.000000) scale(0.100000,-0.100000)"
fill="#000000" stroke="none">
<path d="M224 5439 c-86 -25 -178 -120 -206 -212 -10 -33 -13 -545 -12 -2493
l1 -2451 30 -64 c38 -80 99 -143 171 -177 l57 -27 2355 0 2355 0 57 23 c71 29
137 93 175 170 l28 57 0 2475 0 2475 -22 47 c-27 60 -95 127 -158 159 l-50 24
-2375 2 c-1408 1 -2388 -2 -2406 -8z m4104 -408 l492 -1 0 -2304 0 -2303
-2197 1 -2198 1 -3 2295 c-1 1262 0 2301 3 2307 3 10 364 12 1707 9 937 -2
1925 -5 2196 -5z"/>
<path d="M2532 4793 c-60 -21 -135 -97 -155 -157 -36 -106 -13 -201 70 -284
l53 -53 0 -365 0 -364 -90 0 -90 0 0 273 c0 242 -2 276 -19 312 -51 112 -181
137 -267 51 -66 -66 -65 -169 2 -233 l34 -32 -2 -176 -3 -175 -357 367 -358
367 0 56 c0 162 -116 284 -272 283 -55 0 -75 -5 -120 -30 -65 -37 -113 -97
-134 -169 -50 -173 106 -350 291 -331 l52 5 301 -301 302 -302 0 -108 0 -107
-280 0 -279 0 -15 28 c-50 95 -182 140 -274 93 -163 -84 -161 -312 3 -399 48
-25 143 -21 196 9 l44 24 303 -3 302 -2 0 -120 0 -120 -327 0 -326 0 -54 26
c-92 45 -185 17 -234 -71 -75 -132 50 -291 201 -255 27 6 54 18 61 26 9 12 70
14 345 14 l334 0 0 -135 0 -135 -301 0 -300 0 -36 27 c-28 21 -49 28 -98 31
-83 5 -125 -10 -173 -62 -78 -84 -82 -200 -10 -282 90 -102 235 -99 319 6 l33
40 280 -2 281 -3 -3 -70 c-2 -50 -8 -73 -19 -80 -8 -5 -29 -19 -47 -30 -109
-72 -90 -232 33 -273 75 -25 110 -7 226 114 55 57 104 104 108 104 4 0 7 -71
7 -159 l0 -159 -40 -40 c-53 -53 -59 -126 -14 -194 49 -76 142 -93 222 -41 76
50 82 73 82 346 l0 237 90 0 90 0 0 -309 0 -310 -53 -53 c-107 -107 -116 -255
-21 -366 157 -184 456 -75 458 168 1 80 -28 142 -91 201 l-43 39 0 315 0 315
90 0 91 0 -2 -250 c-1 -229 0 -252 18 -282 62 -106 208 -106 280 1 40 60 27
152 -29 197 -23 19 -23 23 -20 187 l3 169 358 -356 357 -357 -4 -57 c-4 -64 9
-103 57 -169 112 -155 365 -126 451 53 46 93 21 226 -57 306 -56 58 -120 81
-214 76 l-78 -3 -286 290 -285 289 0 78 0 78 279 0 279 0 26 -35 c89 -116 258
-114 341 3 24 35 30 55 33 110 3 60 0 73 -27 119 -42 70 -102 106 -180 106
-54 0 -130 -28 -146 -53 -4 -6 -114 -10 -306 -10 l-299 0 0 136 0 136 323 -3
c286 -3 325 -5 352 -21 135 -80 319 48 276 192 -36 120 -165 175 -270 115
l-43 -25 -319 0 -319 0 0 120 0 120 308 0 c266 0 311 -2 330 -16 13 -9 50 -18
83 -21 229 -21 330 267 138 394 -89 59 -208 35 -274 -54 -38 -51 -49 -53 -351
-53 l-234 0 0 90 0 90 38 19 c46 23 99 81 108 117 4 14 4 46 1 71 -9 85 -100
144 -185 121 -27 -8 -65 -40 -149 -127 l-113 -116 0 181 c0 179 0 181 25 204
13 13 32 42 41 65 28 74 -11 167 -86 205 -22 11 -53 20 -70 20 -38 0 -97 -29
-130 -65 l-25 -27 -3 -299 -3 -299 -89 0 -90 0 0 366 0 366 44 44 c86 86 114
187 77 284 -52 140 -202 212 -339 163z m213 -1578 c204 -52 369 -218 405 -404
42 -225 -53 -449 -244 -573 -173 -112 -430 -105 -595 17 -180 133 -256 345
-206 579 22 103 50 153 135 237 81 81 168 132 250 148 72 14 191 12 255 -4z"/>
<path d="M4099 4661 c-129 -26 -219 -154 -206 -292 15 -165 169 -269 338 -229
76 18 157 100 183 183 49 158 -63 321 -234 340 -25 3 -61 2 -81 -2z"/>
<path d="M1010 1321 c-155 -51 -235 -222 -170 -367 26 -59 60 -97 120 -132 38
-23 56 -27 120 -27 62 0 84 5 128 28 94 49 150 154 139 261 -9 92 -73 183
-155 222 -40 19 -144 28 -182 15z"/>
</g>
</svg>
